# xmcd
#
# Track frame offsets:
#	150
#	18312
#	51732
#	89726
#	113504
#	137800
#	180418
#	215280
#	240652
#	284923
#	307282
#	328628
#
# Disc length: 4596
#
# Revision: 1
# Processed by: cddbd v1.5.1PL0 Copyright (c) Steve Scherf et al.
# Submitted via: EasyCDDAExtractor 4.5.0.2
# Normalized: r0:TDELIM( - )
#
DISCID=b911f20c
DTITLE=Juke Box - Blues HITs #1
DYEAR=2001
DGENRE=Blues
TTITLE0=Janis Joplin - Summertime
TTITLE1=Led Zeppelin - Since I've Been Loving You
TTITLE2=Livin' Blues - Blue Breeze
TTITLE3=Kingdom Come - What Love Can Be
TTITLE4=Cinderella - Long Cold Winter
TTITLE5=Led Zeppelin - Tear For One
TTITLE6=Gary Moore - As The Years Go Passing By
TTITLE7=Livin' Blues - Shylina
TTITLE8=Toto - High Price Of Hate
TTITLE9=Grand Funk Railroad - It's A Man World
TTITLE10=ZZ Top - Blue Jeans Blue
TTITLE11=Jonny Lang - Cherry Red Wine
EXTD=
EXTT0=
EXTT1=
EXTT2=
EXTT3=
EXTT4=
EXTT5=
EXTT6=
EXTT7=
EXTT8=
EXTT9=
EXTT10=
EXTT11=
PLAYORDER=
